<svg xmlns="http://www.w3.org/2000/svg" width="859.58203pt" height="875.25pt" viewBox="0 0 859.58203 875.25"><defs><clipPath id="a"><path d="M438 824h45v51.25h-45zm0 0"/></clipPath></defs><path d="m101.246 456.996 222.305-331.262h216.898l222.305 331.262-330.754 332a26428841 26428841 0 0 1-330.754-332m633.078-2.75L528.695 147.832h-193.39l-205.63 306.414L432 757.711q151.161-151.732 302.324-303.465" style="fill:#21216e;fill-opacity:1;fill-rule:nonzero;stroke:none" transform="translate(-2.207)"/><path d="M712.566 455.988 519.258 167.93H344.742L151.434 455.988 432 737.61Q572.286 596.8 712.566 455.99" style="fill:#ffca07;fill-opacity:1;fill-rule:evenodd;stroke:none" transform="translate(-2.207)"/><path d="m129.676 454.246 205.629-306.414h193.39l205.63 306.414L432 757.711Q280.839 605.979 129.676 454.246m578.59-2.52L517.918 168.09H346.082L155.734 451.727 432 729.03c92.09-92.437 184.176-184.87 276.266-277.304" style="fill:#fff;fill-opacity:1;fill-rule:nonzero;stroke:none" transform="translate(-2.207)"/><path d="M423.605 720.602s-2.753-10.836-7.238-19.516c-4.48-8.684-15.125-29.414-17.262-51.004 0 0-8.937-2.941-9.988-5.969-1.047-3.027-2.27-10.082-3.527-13.168-1.258-3.082 1.82-6.64 3.527-8.965 1.711-2.32.168-9.992-3.527-18.285-3.7-8.293-5.594-15.539-6.258-24.27s-3.594-15.038-4.477-22.738c-.882-7.703 6.31-21.332 9.008-25.578 0 0-5.515-3.254-2.703-13.757 2.813-10.508 3.703-27.52 3.453-34.704-.246-7.187-5.222-15.277-5.281-32.312-.062-17.04-3.32-21.527-4.477-23.3-1.156-1.77-.093-24.977-1.96-33.481-1.864-8.504-5-21.285-9.227-22.93s-5.86-1.563-9.566-4.352c-3.711-2.785-10.239.497-14.024 0-3.781-.492-3.773-2.57-9.383-1.699-5.613.875-14.972 2.36-17.351 1.7-2.383-.657-3.617-.567-6.383 0-2.762.57-29.691.843-35.246 0 0 0-6.004 6.058-16.242 2.953-10.239-3.11-77.34-28.528-86.582-35.782-9.243-7.254-18.282-8.37-23.829-9.074-5.546-.7-22.382-9.797-26.59-11.035-4.206-1.238-.038 5.559-4.038 5.84s-6.786-4.516-6.786-4.516-5.66 1.774-6.793-9.793c-1.132-11.566 2.907-9.265 4.137-9.437 1.235-.172 4.48-.766 4.48-.766s-5.488-.922-7.425 0c-1.934.922-11.758 5.145-16.746 3.523-4.985-1.625-1.442-5.304 2.625-7.265 4.066-1.961 12.601-7.16 17.066-7.16 4.469-.004 11.274.207 13.48.773 2.208.567-9.913-9.398-14.609-12.46-4.691-3.063-12.27-7.274-12.12-10.216.148-2.945 1.73-6.277 4.359-4.882 2.628 1.39 7.074 6.046 11.546 7.953 4.473 1.906 10.25 6.343 13.625 9.414 3.38 3.066 8.067 5.765 13.66 7.883 5.594 2.12 16.188 11.503 20.118 14.668 3.926 3.167 5.804 4.64 11.531 5.73 5.723 1.09 22.969 8.605 32.5 12.035s25.379 4.235 36.832 7.348c11.453 3.105 23.195 10.172 35.8 10.172 12.606 0 23.235-3.88 25.47-4.606 0 0 4.625-4.18 7.261-4.203 2.64-.02 11.512 1.32 15.368 0 3.855-1.316 6.597-6.387 8.16-6.644 1.558-.262 4.039.863 4.039.863l3.453-5.985s6.242.114 9.625-1.449c3.387-1.558 20.273-10.37 23.973-11.203 3.695-.832 7.976-.129 8.574-.766.601-.636-.145-5.14 1.695-5.406 1.836-.27 6.406-2.39 14.031 4.114 7.621 6.507 11.598 4.277 14.43 1.292 2.832-2.988 3.715-4.394 3.715-4.394s-7.192.48-5.735-4.2c1.461-4.683.239-7.058-2.609-7.366-2.848-.305-4.055-2.657-1.129-5.457 2.934-2.801 3.344-7.723-1.43-7.547-4.77.175-7.449-.774-5.757-5.25 1.695-4.473-2.785-3.243-5.73-4.055-2.942-.809-4.88-5.441 2.097-15.73 6.976-10.293 5.992-12.52 5.226-15.586-.765-3.063 0-5.723 0-5.723l-3.078 1.348s2.235-3.454 3.078-8.625c.844-5.172 5.2-20.391 16.059-26 10.86-5.606 14.566-4.184 19.5-5.317s13.047-1.496 17.805 0c4.757 1.492 11.832 1.73 13.945 3.578 2.113 1.844 5.441 1.914 10.57 3.485 5.13 1.566 11.766 4.336 14.711 8.832s11.242 15.746 10.73 21.054c-.515 5.313-2.605 18.77-.991 25.016 0 0-2.137-1.219-2.965-3.2 0 0 .023 8.755 0 12.923-.024 4.172.691 12.582 1.218 13.25 0 0-1.527-1.246-2.101-2.29 0 0-1.059 9.833-1.977 12.149 0 0-1.402-1.023-1.808 1.734-.41 2.762-2.106 5.18-2.106 5.18s6.93-.887 9.739 2.16c2.808 3.047 4.19 2.149 6.07 4.625 1.875 2.477 8.441 3.375 12.187 4.114s41.637 19.53 43.618 20.695c1.976 1.168 3.628 1.586 3.918 5.781.289 4.195 5.16 7.14 6.035 13.406.875 6.262 5.879 15.22 7.593 20.106 1.711 4.887 4.645 15.207 6.508 19.164s5.442 11.324 7.48 16.57c2.036 5.242 5.598 9.75 7.122 11.332 1.523 1.582-.086 5.227 0 7.426.09 2.203 1.285 5.059 0 6.031-1.285.973-.95.856 1.793 6.899 2.746 6.043 14.539 25.562 14.539 41.86 0 16.3-6.856 27.991-7.738 31.718-.883 3.73.292 7.496-1.418 9.25-1.715 1.754-.985 4.015 0 7.02.98 3.003.652 13.62-8.907 18.32-9.554 4.695-14.148 7.738-16.195 9.18-2.047 1.445-5.863 3.843-7.852 1.265-1.992-2.578.887-2.758 1.946-3.856 1.058-1.093 1.855-3.132 1.855-3.132s-5.168 4.144-7.91 4.289c-2.742.148-3.367-1.602-3.394-3.36 0 0-3.797.477-5.375-2.043-1.583-2.52 1.78-4.875 3.917-6.902 2.137-2.023 8.961-7.797 8.961-7.797s-3.16 1.223-8.96 5.914c-5.801 4.696-6.329 2.813-7.473 1.098-1.145-1.719 2.469-6.32 4.957-8.41 2.488-2.086 4.918-4.875 5.055-5.473.14-.598-2.168 2.566-4.192.906s-2.004-2.078 0-8.16c2.004-6.078 1.387-10.777 7.688-12.351 6.3-1.57 8.476-2.649 11.562-2.891 0 0-.965-10.29-.785-21.098.18-10.812.785-17.918.785-17.918s-5.316-8.363-8.637-12.707c-3.324-4.343-5.246-8.68-6.421-8.992-1.176-.316-2.235-.156-4.192-3.797-1.957-3.644-3.207-2.414-4.21-4.176-1.009-1.757-.72-4.718-1.61-6.39-.89-1.68-9.34-15.61-12.723-17.692 0 0-2.328 3.47-2.672 4.633-.343 1.168-.633 12.164-1.93 14.793-1.3 2.625-2.406 4.2-2.675 6.899-.274 2.703-.852 15.484-3.235 20.894s-4.652 6.38-4.77 9.817c-.12 3.437.31 13.261-1.335 17.93-1.645 4.667-4.172 9.48-3.969 14.687s1.094 7.258 5.305 10.25c4.21 2.996 9.066 6 8.004 13.242s-4.621 6.809-5.895 7.594c0 0 4.54 9.258 7.383 13.754 2.844 4.492 7.824 16.343 7.785 26.453-.043 10.11-1.406 25.851-5.465 35.633 0 0 2.899 16.996.797 24.363L432 729.032z" style="fill:#21216e;fill-opacity:1;fill-rule:evenodd;stroke:none" transform="translate(-2.207)"/><path d="M321.453 365.922c-3.2.398-6.121.644-7.617.445-.152-1.855-.332-4.05-.477-5.527-.293-3.012-.48-15.344-1.246-21.93-.543-4.691-4.203-11.789-6.261-15.48 1.539.101 3.726.316 5.988.437 2.7 4.613 6.773 12.567 7.973 20.27 1.496 9.625 1.011 16.293 1.64 21.785" style="fill:#0775b8;fill-opacity:1;fill-rule:evenodd;stroke:none" transform="translate(-2.207)"/><path d="M320.969 322.852c2.105 2.78 4.91 7.304 5.972 12.726 1.332 6.809 1.29 22.09 1.184 29.395-2.11.324-4.457.672-6.672.949-.629-5.492-.144-12.16-1.64-21.785-1.2-7.703-5.274-15.657-7.973-20.27 2.976.156 6.082.153 7.973-.496a7 7 0 0 0 1.156-.52" style="fill:#fff;fill-opacity:1;fill-rule:evenodd;stroke:none" transform="translate(-2.207)"/><path d="M320.969 322.852c2.898-1.598 5.078-5.028 6.511-5.922 4.239 6.843 7.52 18.379 8.165 24.832.582 5.82.32 17.234.132 23.039-1.12-.406-2.511-.625-5.082-.227-.793.125-1.66.258-2.57.399.105-7.305.148-22.586-1.184-29.395-1.062-5.422-3.867-9.945-5.972-12.726" style="fill:#eb2123;fill-opacity:1;fill-rule:evenodd;stroke:none" transform="translate(-2.207)"/><path d="M434.508 322.71c6.46.286 12.922.563 19.379 1.06l.308.027c-2 32.488-4.347 65.02-5.27 97.449l-.015.516 4.117.445-.812 20.398c-10.055-.265-20.133-.324-30.145-1.152l-.277-.023 1.184-20.184 5.289.215c1.066-21.473 2.011-42.992 4.043-64.48.156-1.672.328-3.344.543-5.012-3.442-.278-6.88-.543-10.32-.727l-.739-.035 12.11-28.52zm1.531 2.571c5.176.239 10.344.485 15.512.828-2 32.618-4.305 65.149-5.2 97.887l4.087.445-.625 15.598c-8.47-.234-16.922-.445-25.38-.926l.895-15.27 5.313.216c1.191-23.82 1.77-47.95 4.644-71.434l.38-2.934a739 739 0 0 0-10.185-.777l10.047-23.652c.172.004.34.011.512.02m-7.621 21.836 2.227.164c1.175.094 2.242.176 2.242.176l5.027.406-.644 5.008c-2.692 21.988-3.278 44.649-4.399 66.652l-.078 1.543-.254 5.07-5.328-.214-.664 11.305c6.695.351 13.43.543 20.156.726l1.192.035.468-11.761-4.062-.442c.87-31.8 3.031-63.808 5.015-95.902l.118-1.906a734 734 0 0 0-10.575-.563l-.968-.043-1.067-.05c-2.8 6.597-5.605 13.195-8.406 19.796M521.547 333.57c-.438 13.512-2.18 26.957-3.5 40.457-.8 8.184-1.625 16.364-2.457 24.543l-.188 1.836s-.273.578.246.742a16.3 16.3 0 0 1 3.786 1.774s-1.23 6.25-2.047 11.223q-.541 3.257-1.016 6.527l-3.105-.508-1.668 10.027c.746.329 2.199 1.164 3.62 2.028l-4.269 17.945-24.383-7.96 2.696-17.946c2.035.375 4.648.637 4.648.637.473-1.047.625-2.25.86-3.418.37-1.836.699-3.68 1.003-5.528-3.925-1.879-8.644-1.879-13.293-2.285-8.296-.723-16.636-1.035-24.984-1.191l-.367-.004.047-.805c.394-8.133.582-16.215.816-24.316l.028-.914 30.242-57.188zm-2.613 2.282c-1.371 21.73-3.848 43.445-6.082 64.925l-.22 2.09 2.095.613 1.89.836c-.89 4.485-1.648 8.985-2.347 13.5l-3.047-.617-2.41 14.504 1.824.797c.77.398 1.828.988 1.828.988l-3.3 13.461-19.813-6.465 2.09-13.37c1.328.167 2.663.32 3.995.472l.778-1.719c.758-3.93 1.691-7.375 2.305-11.183l.027-.18-1.785-.856c-.801-.359-.977-.406-1.461-.558-3.328-1.055-6.864-1.399-10.364-1.8-8.023-.919-16.113-1.06-24.18-1.247l-1.007-.023c.309-7.653.531-15.29.75-22.934l29.16-55.137zm-56.45 51.757c-.195 6.817-.39 13.637-.656 20.457 10.113.235 20.246.454 30.203 2.235 1.903.336 3.809.738 5.574 1.535l3.16 1.512a183 183 0 0 1-2.718 13.32l-1.387 3.07-3.543-.406-1.523 9.777 16.14 5.27 2.422-9.871c-.195-.106-.383-.203-.383-.203l-3.187-1.395 3.004-18.082 3.027.613q.24-1.512.492-3.02c.383-2.273.782-4.538 1.215-6.8l-.285-.258-3.566-1.043c2.293-22.16 4.855-44.28 6.332-66.515l.011-.22-26.039-3.472zm39.926 13.774c-8.094-.715-16.18-1.36-24.281-1.66h-5.488v-5.567c6.675-15.14 14.796-30.015 22.816-44.746.766-1.387 1.836-3.152 1.836-3.152l.848-1.422h7.425q-1.58 28.27-3.156 56.547m1.04-54.547-2.923 52.371-.699-.062c-7.215-.625-14.437-1.153-21.664-1.422h-3.523v-3.149l.12-.273a446 446 0 0 1 24.516-47.465zm-2.384 2.105c-.148.266-.578.887-1.043 1.559l-.418.598c-.484.695-.93 1.34-1.058 1.586-7.02 13.41-12.606 23.703-19.29 37.39-.382.781-2.183 3.531-2.53 4.324v.883c.53.02 2.484-.02 3.015 0 5.817.25 11.621.621 17.422 1.121l1.016.086 2.898-47.574z" style="fill:#fff;fill-opacity:1;fill-rule:evenodd;stroke:none" transform="translate(-2.207)"/><path d="m331.191 864.117 3.891-18.465 1.52-.98 12.535 22.058 9.695 2.04.227-.465-14.66-27.992 23.609-18.215-.063-.602-9.39-1.976-21.133 15.007 4.156-19.726-8.605-1.813-10.383 49.32zM385.695 824.05l8.086.513 20.567 35.648 1.875-33.305h8.14l-3.297 47.305-8.246-.73-19.75-31.852-2.18 30.281-8.449-.531z" style="fill:#21216e;fill-opacity:1;fill-rule:nonzero;stroke:none" transform="translate(-2.207)"/><g clip-path="url(#a)" transform="translate(-2.207)"><path d="m463.395 875.25.496-.043 18.129-51.156-9.684.824-10.461 29.547-13.395-27.54-9.746.829z" style="fill:#21216e;fill-opacity:1;fill-rule:nonzero;stroke:none"/></g><path d="M532.828 827.129c-1.55-6.516-6.973-13.813-18.539-11.063l-17.098 4.442 10.329 48.262 18.421-3.668c11.567-2.75 13.149-11.637 11.598-18.149-1.098-4.625-4.328-7.777-7.562-8.789 2.613-2.394 3.714-7.394 2.851-11.035m-12.914 9.137-8.312 1.976-2.696-11.347 8.133-1.934c5.059-1.203 6.797 2.898 7.113 4.23.383 1.61.61 5.774-4.238 7.075m4.465 19.586-8.133 1.933-2.547-10.719 8.313-1.972c4.914-1.024 6.422 2.097 6.851 3.922.317 1.328.578 5.632-4.484 6.836M39.11 385.7l9.718 2.359s1.133-5.34 1.375-7.082c2.04-14.747-8.168-16.77-16.32-17.899l-30.27-4.191-1.406 10.136 30.273 4.192c2.692.375 8.606.074 7.758 7.762-.16 1.46-1.129 4.722-1.129 4.722M16.738 303.934c-5.773 18.214 7.145 28.39 17.106 31.546 10.23 3.247 26.445 2.305 32.219-15.91 5.73-18.082-6.981-28.191-17.215-31.433-9.961-3.157-26.38-2.282-32.11 15.797m40.387 12.8c-3.871 12.211-16.281 10.157-20.168 8.922-3.89-1.23-15.082-6.656-11.215-18.867 3.809-12.008 16.106-10.062 19.992-8.828 3.887 1.23 15.2 6.77 11.391 18.773M69.043 256.133l9.703-18.508 17.746 9.305 4.688-8.938-44.371-23.258-4.684 8.938 18.383 9.633-9.703 18.507-18.383-9.632-4.719 9 44.371 23.257 4.719-9zM112.203 220.16l6.84-9.004-6.457-11.015 9.176-12.082 12.39 3.21 6.797-8.945-54.558-12.062-.434.57zm-9.504-37.058 10.274 2.683-4.934 6.496zM121.145 128.258l6.851-6.387 39.195 9.711-23.066-24.742 7.16-6.672 35.047 37.602-6.875 6.41-39.098-9.66 22.993 24.667-7.157 6.672zM237.11 93.57c-6.38-1.804-11.47-6.125-15.114-13.156-2.355-4.55-4.582-17.215 1.133-24.664s11.312-12.414 29.652-9.937l-2.922 9.937c-5.855-2.504-14.222.832-16.98 4.715-2.762 3.879-4.852 13.426 1.3 19.008s14.231 4.496 18.602.941 4.88-5.46 5.766-9.07l9.617 4.558c-1.226 4.805-11.02 23.344-31.055 17.668M301.527 53.219l6.403-2.07 13.11 14.038 10.483-3.386-14.34-15.297c4.63-4.055 7.044-10.324 4.82-17.203-2.05-6.332-8.944-14.18-22.023-9.957l-18.043 5.832 15.403 47.672 9.535-3.082zm6.243-11.871-9.125 2.949-4.336-13.418 8.851-2.86c5.79-1.87 8.426 2.09 9.172 4.407.684 2.113.91 7.004-4.562 8.922M373.277 44.477c-7.64 1.156-10.793-6.254-11.23-9.157l-4.59-30.285L347.41 6.56l4.586 30.285c1.266 8.347 8.09 18.969 22.664 16.761 14.574-2.21 17.945-14.375 16.68-22.722L386.75.598l-10.117 1.53 4.59 30.286c.437 2.902-.305 10.902-7.946 12.063M430.313 0l-10.16.176v48.773l10.16-.18zM456.207 38.316l-1.2 10.16s5.286.715 8.52 1.012c11.813 1.082 15.094-8.953 15.711-17.16l2.29-30.473-10.473-.882-2.328 29.797c-.204 2.71.02 8.945-6.332 8.652-2.286-.11-6.188-1.106-6.188-1.106M536.168 42.281l2.144-9.05-18.242-4.329 2.64-11.14 23.33 5.531 2.147-9.05-33.148-7.86-11.559 48.742 9.82 2.328 4.626-19.496zM593.484 62.473l3.496-8.621-17.378-7.047 4.304-10.614 22.219 9.012 3.496-8.621-31.57-12.8-18.824 46.421 9.347 3.793 7.531-18.57zM669.438 87.148c1.812-2.375 4.644-1.539 5.835-.68 4.059 2.934 5.024 6.454 6.422 8.68l9.836-3.27c-3.547-7.862-7.726-12.991-10.058-14.651-7.7-5.48-16.391-4.993-21.703 2.472-6.31 8.864.558 16.739 5.37 23.063 3.094 4.043 3.669 6.004 1.13 8.586-2.114 2.101-6.684.351-7.86-1.227-2.3-3.094-2.719-4.89-4.031-9.277l-10.512 1.101c1.2 6.047 3.278 14.008 9.399 18.364 8.511 6.058 18.07 5.218 23.21-1.137 6.75-8.371.47-16.707-4.351-23.387-3.027-4.262-4.277-6.55-2.687-8.637M694.277 144.086c-.504-6.613 1.793-12.879 7.141-18.723 3.46-3.785 14.578-10.238 23.543-7.441s15.55 6.34 19.55 24.41l-10.335.68c.332-6.356-5.684-13.063-10.278-14.313-4.597-1.254-14.277.078-17.394 7.774-3.121 7.699.683 14.91 5.527 17.789 4.844 2.875 6.809 2.695 10.5 2.285l-.96 10.594c-4.934.507-25.716-2.293-27.294-23.055M753.098 188.559l12.238 16.933-16.238 11.742 5.91 8.176 40.601-29.348-5.91-8.175-16.82 12.156-12.242-16.934 16.82-12.16-5.953-8.234-40.602 29.344 5.953 8.238zM766.027 243.172l5.008 10.137 12.742-.871 6.727 13.601-8.399 9.66 4.977 10.07 35.117-43.46-.316-.645zm37.41 8.012-6.984 8-3.613-7.313zM792.992 300.672l3.305 10.812 12.715 1.207 4.426 14.512-9.852 8.168 3.277 10.75 41.703-37.195-.21-.684zm35.617 13.969-8.187 6.765-2.379-7.804zM861.79 369.504l-1.47-10.055-49.566 7.239 4.176 28.609 9.207-1.344-2.711-18.555z" style="fill:#21216e;fill-opacity:1;fill-rule:nonzero;stroke:none" transform="translate(-2.207)"/><path d="M16.234 465.04c-3.945-1.716-6.707-5.645-6.707-10.216 0-6.144 4.989-11.136 11.133-11.136 6.145 0 11.133 4.992 11.133 11.136 0 4.492-2.664 8.367-6.504 10.125 1.973 29.942 7.215 59.668 15.734 88.45 27.114 91.581 87.813 172.867 167.704 225.3a397 397 0 0 0 47.332 26.602 11.1 11.1 0 0 1 7.89-3.281c6.145 0 11.133 4.988 11.133 11.132 0 6.145-4.988 11.133-11.133 11.133-5.953 0-10.82-4.683-11.12-10.562-40.032-19.141-77.079-44.63-109.157-75.399C76.882 674.266 32.21 587.512 19.367 495.855a409 409 0 0 1-3.133-30.816M847.734 465.04c3.946-1.716 6.707-5.645 6.707-10.216 0-6.144-4.992-11.136-11.136-11.136-6.145 0-11.133 4.992-11.133 11.136 0 4.492 2.668 8.367 6.504 10.125-1.973 29.942-7.211 59.668-15.73 88.45-27.118 91.581-87.813 172.867-167.708 225.3a397 397 0 0 1-47.328 26.602 11.1 11.1 0 0 0-7.89-3.281c-6.149 0-11.137 4.988-11.137 11.132 0 6.145 4.988 11.133 11.137 11.133 5.953 0 10.82-4.683 11.117-10.562 40.035-19.141 77.078-44.63 109.16-75.399 66.789-64.058 111.46-150.812 124.305-242.469a413 413 0 0 0 3.132-30.816" style="fill:#21216e;fill-opacity:1;fill-rule:evenodd;stroke:none" transform="translate(-2.207)"/></svg>